<svg width="52" height="39" viewBox="0 0 52 39" fill="none" xmlns="http://www.w3.org/2000/svg">
<path d="M51.898 5.236C47.9967 6.468 44.8653 8.316 42.504 10.78C40.2453 13.244 39.3727 16.4267 39.886 20.328C41.0153 21.252 42.6067 22.2273 44.66 23.254C46.7133 24.178 48.51 24.8967 50.05 25.41C50.4607 27.0527 50.4607 28.644 50.05 30.184C49.6393 31.724 48.972 33.11 48.048 34.342C47.124 35.4713 46.046 36.4467 44.814 37.268C43.582 37.9867 42.4527 38.3973 41.426 38.5C37.8327 38.192 34.7013 36.8573 32.032 34.496C29.3627 32.1347 28.028 28.7467 28.028 24.332C28.028 21.7653 28.4387 19.1987 29.26 16.632C30.184 14.0653 31.5187 11.704 33.264 9.548C35.0093 7.28934 37.2167 5.33867 39.886 3.696C42.5553 1.95067 45.738 0.71867 49.434 0L51.898 5.236ZM23.87 5.236C19.9687 6.468 16.8373 8.316 14.476 10.78C12.2173 13.244 11.3447 16.4267 11.858 20.328C12.9873 21.252 14.5787 22.2273 16.632 23.254C18.6853 24.178 20.482 24.8967 22.022 25.41C22.4327 27.0527 22.4327 28.644 22.022 30.184C21.6113 31.724 20.944 33.11 20.02 34.342C19.096 35.4713 18.018 36.4467 16.786 37.268C15.554 37.9867 14.4247 38.3973 13.398 38.5C9.80467 38.192 6.67333 36.8573 4.004 34.496C1.33467 32.1347 0 28.7467 0 24.332C0 21.7653 0.410667 19.1987 1.232 16.632C2.156 14.0653 3.49067 11.704 5.236 9.548C6.98133 7.28934 9.18867 5.33867 11.858 3.696C14.5273 1.95067 17.71 0.71867 21.406 0L23.87 5.236Z" fill="#ED805B"/>
</svg>
