<svg width="52" height="39" viewBox="0 0 52 39" fill="none" xmlns="http://www.w3.org/2000/svg">
<path d="M-5.34058e-05 5.236C3.90128 6.468 7.03262 8.316 9.39395 10.78C11.6526 13.244 12.5253 16.4267 12.0119 20.328C10.8826 21.252 9.29128 22.2273 7.23795 23.254C5.18462 24.178 3.38795 24.8967 1.84795 25.41C1.43728 27.0527 1.43728 28.644 1.84795 30.184C2.25861 31.724 2.92595 33.11 3.84995 34.342C4.77394 35.4713 5.85195 36.4467 7.08395 37.268C8.31594 37.9867 9.44528 38.3973 10.472 38.5C14.0653 38.192 17.1966 36.8573 19.8659 34.496C22.5353 32.1347 23.8699 28.7467 23.8699 24.332C23.8699 21.7653 23.4593 19.1987 22.6379 16.632C21.7139 14.0653 20.3793 11.704 18.6339 9.548C16.8886 7.28934 14.6813 5.33867 12.0119 3.696C9.34261 1.95067 6.15995 0.71867 2.46395 0L-5.34058e-05 5.236ZM28.0279 5.236C31.9293 6.468 35.0606 8.316 37.4219 10.78C39.6806 13.244 40.5533 16.4267 40.0399 20.328C38.9106 21.252 37.3193 22.2273 35.2659 23.254C33.2126 24.178 31.416 24.8967 29.8759 25.41C29.4653 27.0527 29.4653 28.644 29.8759 30.184C30.2866 31.724 30.9539 33.11 31.8779 34.342C32.8019 35.4713 33.8799 36.4467 35.1119 37.268C36.3439 37.9867 37.4733 38.3973 38.4999 38.5C42.0933 38.192 45.2246 36.8573 47.8939 34.496C50.5633 32.1347 51.8979 28.7467 51.8979 24.332C51.8979 21.7653 51.4873 19.1987 50.6659 16.632C49.7419 14.0653 48.4073 11.704 46.6619 9.548C44.9166 7.28934 42.7093 5.33867 40.0399 3.696C37.3706 1.95067 34.1879 0.71867 30.4919 0L28.0279 5.236Z" fill="#ED805B"/>
</svg>
